<?xml version="1.0" encoding="utf-8"?>
<!-- Generator: Adobe Illustrator 19.0.0, SVG Export Plug-In . SVG Version: 6.00 Build 0)  -->
<svg version="1.1" id="Layer_1" xmlns="http://www.w3.org/2000/svg" xmlns:xlink="http://www.w3.org/1999/xlink" x="0px" y="0px"
	 viewBox="-353 209 252 144" style="enable-background:new -353 209 252 144;" xml:space="preserve">
<style type="text/css">
	.st0{fill:#c5c5c5;}
</style>
<g id="XMLID_4_">
	<g id="XMLID_161_">
		<path id="XMLID_174_" class="st0" d="M-277.7,313.2c0,7.5-2.8,14.2-8.4,20.3c-5.1,5.5-12.6,8.6-22.3,9.1
			c-15.1-0.7-28.8-6.9-39.1-16.6c-0.1-1.4-0.2-3.1-0.4-4.8c-0.4-4.9-0.6-8.7-0.6-11.1c0-3.2,0.1-5.9,0.4-8.2h2.6
			c0.5,9.5,4.3,17.3,11.4,23.4c7,6,14.9,9.1,23.9,9.1c7,0,12.6-1.9,16.9-5.9c4.3-3.9,6.5-8.6,6.5-14.1c0-5.8-2.1-10.2-6.3-13.4
			c-4-3.1-11.9-6.6-24-10.5c-9.6-3.2-16.4-5.8-20.5-7.9c-4.7-2.4-8.4-5.7-11.1-9.9c-2.8-4.2-4.3-9-4.3-14.2c0-5.8,1.9-11.6,5.9-17.1
			c-0.9,2.8-1.4,5.4-1.4,7.5c0,5.8,1.4,10.8,4.1,15.1c2.8,4.5,6.3,7.9,10.4,10.2c4.1,2.3,11,5,20.7,8.1c12.7,3.9,21.8,8.1,27.4,12.8
			C-280.4,299.5-277.7,305.5-277.7,313.2z"/>
		<path id="XMLID_168_" class="st0" d="M-263.4,305c0,9.2-3.4,16.5-10.2,21.7c2.5-3.5,3.8-8.3,3.8-14.6c0-5.9-1.4-11.2-4.1-15.7
			c-2.8-4.7-6.4-8.3-10.7-11.1c-4.3-2.8-11.2-5.8-21-9c-14.6-4.8-24-8.9-28.4-12.3c-4.4-3.5-6.6-8.9-6.6-16.1
			c0-8.4,3.4-15,10.2-19.8c6.3-4.3,15-6.6,26.2-7c12.7,0.3,24.5,4.5,34.1,11.4c0,1.8,0.1,3.7,0.2,5.9c0.2,3.8,0.4,7.1,0.4,10
			c0,1.9-0.1,4.3-0.2,7.1l-2.3,0.1c-0.1-8.5-3.5-14.9-10.2-19.1c-6.5-4.1-14.6-6.1-24-6.1c-7.4,0-13.6,1.6-18.3,4.8
			c-4.9,3.2-7.3,7-7.3,11.4c0,4.7,1.9,8.5,5.8,11.2c4,3,11.9,6.5,23.6,10.5c11,3.8,18.6,6.8,22.9,9.2c4.6,2.6,8.5,6.3,11.6,11.1
			C-264.9,293.4-263.4,298.9-263.4,305z"/>
	</g>
	<g id="XMLID_3_">
		<path id="XMLID_9_" class="st0" d="M-241,308.1v-50.6h28.2v7h-20v12.7h20v7.3h-20v16.4h20v7.4H-241z"/>
		<path id="XMLID_11_" class="st0" d="M-203.3,308.1v-50.6h8.2v43.2h18.3v7.4H-203.3z"/>
		<path id="XMLID_13_" class="st0" d="M-157.6,264.5v43.6h-8.2v-43.6h-13.4v-7h35.1v7H-157.6z"/>
		<path id="XMLID_15_" class="st0" d="M-109.7,308.1l-5.8-13h-20.1l-5.8,13h-8.6l24.5-52.6L-101,308L-109.7,308.1L-109.7,308.1z
			 M-132.4,288.2h14.1l-5.2-11.5c-0.3-0.7-0.6-1.6-0.9-2.6c-0.4-0.9-0.6-2-1-3.2c-0.3,1.1-0.6,2.1-0.9,3.1c-0.3,0.9-0.6,1.8-0.9,2.6
			L-132.4,288.2z"/>
	</g>
</g>
</svg>
